<?xml version="1.0" standalone="no"?>
<!DOCTYPE svg PUBLIC "-//W3C//DTD SVG 20010904//EN"
 "http://www.w3.org/TR/2001/REC-SVG-20010904/DTD/svg10.dtd">
<svg version="1.0" xmlns="http://www.w3.org/2000/svg"
 width="250.000000pt" height="250.000000pt" viewBox="0 0 250.000000 250.000000"
 preserveAspectRatio="xMidYMid meet">
<metadata>
Created by potrace 1.11, written by Peter Selinger 2001-2013
</metadata>
<g transform="translate(0.000000,250.000000) scale(0.100000,-0.100000)"
fill="#000000" stroke="none">
<path d="M1063 2484 c-518 -83 -918 -474 -1030 -1004 -21 -102 -24 -350 -4
-450 44 -232 145 -438 300 -617 104 -119 79 -121 293 21 353 235 438 312 620
567 65 90 152 201 194 247 91 98 92 88 -23 212 -82 87 -171 151 -239 170 l-45
13 -86 -59 c-239 -164 -392 -394 -334 -503 16 -29 69 -61 101 -61 66 1 171 80
250 189 24 33 56 65 72 72 84 34 163 -65 111 -141 -69 -103 -182 -205 -283
-256 -48 -25 -66 -28 -140 -28 -72 0 -93 4 -135 26 -100 52 -145 127 -145 240
0 231 207 468 568 652 224 113 446 189 782 266 102 23 203 47 225 52 l40 10
-73 69 c-163 153 -364 256 -592 304 -108 23 -315 28 -427 9z m-106 -325 c83
-40 153 -156 153 -254 0 -58 -7 -73 -41 -91 -36 -18 -90 -10 -115 17 -16 18
-15 19 25 25 23 4 44 10 46 14 8 14 -47 110 -77 136 -32 26 -69 31 -86 11 -6
-7 -12 -49 -14 -92 -3 -78 -4 -80 -37 -102 -46 -31 -77 -29 -113 7 -30 30 -30
32 -26 113 5 95 29 151 83 194 60 48 132 56 202 22z"/>
<path d="M2085 2014 c-199 -54 -478 -146 -623 -207 l-73 -30 65 -59 c158 -142
282 -363 317 -563 15 -87 6 -289 -16 -370 -40 -144 -148 -334 -226 -396 l-40
-31 7 28 c4 16 18 54 32 84 97 218 131 424 98 590 -10 47 -20 87 -23 90 -9 9
-141 -140 -242 -273 -188 -250 -267 -310 -751 -570 -110 -59 -108 -55 -54 -93
129 -92 338 -173 513 -199 540 -82 1070 202 1300 696 72 155 121 370 121 534
0 174 -55 403 -134 561 -58 116 -141 234 -164 233 -9 -1 -57 -12 -107 -25z"/>
</g>
</svg>
